<svg xmlns="http://www.w3.org/2000/svg" viewBox="0 0 100 100" id="bullet"><path fill="#c8d6e4" d="M27.183 55.275v4.089c0 .646-.154 1.663.197 2.261.755 1.289 4.117.715 5.288.715h8.409c.49-.832 1.861-.83 2.351.001 4.369 0 8.685-.067 12.983-1.149 5.335-1.342 10.352-4.03 13.897-8.304a18.558 18.558 0 0 0 2.295-3.489c.085-.168.158-.351.245-.521a17.754 17.754 0 0 0-1.092-1.993c-.988-1.567-2.206-2.97-3.568-4.224-4.19-3.858-9.151-5.665-14.389-6.508v1.521c0 1.748-2.712 1.745-2.712 0v-1.872c-4.408-.451-8.948-.369-13.342-.369h-2.901V56.77c0 1.748-2.712 1.745-2.712 0V35.433H30.53c-1.47 0-3.161-.302-3.349 1.69-.362 3.85 0 7.893 0 11.763.002 2.131.002 4.26.002 6.389zm29.058-15.158h3.598c1.748 0 1.745 2.712 0 2.712h-3.598c-1.748 0-1.746-2.712 0-2.712zm-7.886 21.127h-2.969c-1.748 0-1.745-2.712 0-2.712h2.969c1.748.001 1.745 2.712 0 2.712zm2.733-15.974c0-1.748 2.712-1.745 2.712 0v3.597c0 1.748-2.712 1.745-2.712 0V45.27zm-6.039-5.153h3.598c1.748 0 1.745 2.712 0 2.712h-3.598c-1.747 0-1.744-2.712 0-2.712zm-4.152 13.669c0-1.748 2.712-1.745 2.712 0v2.969c0 1.748-2.712 1.745-2.712 0v-2.969zm-4.747 4.747h2.969c1.748 0 1.745 2.712 0 2.712H36.15c-1.748-.001-1.745-2.712 0-2.712z"></path><path fill="#332195" d="M24.471 48.887v6.196c0 2.059-.228 4.267.045 6.316.351 2.635 2.585 3.652 4.972 3.652h7.108c1.424 0 2.86.007 4.3.005v.933c0 1.745 2.712 1.748 2.712 0v-.953c9.589-.138 19.174-1.172 26.616-8.115 2.002-1.869 4.72-4.76 5.352-7.573.444-1.975-2.084-4.83-3.182-6.178-3.732-4.577-9.116-7.568-14.769-9.077a35.367 35.367 0 0 0-4.088-.827c-.447-.572-1.361-.647-1.938-.233-3.453-.342-6.929-.312-10.434-.312h-9.712c-2.073 0-4.378-.317-5.927 1.393-1.637 1.807-1.056 5.204-1.056 7.436l.001 7.337zm48.486-.191c-.001-.026-.001-.045-.003-.047a.414.414 0 0 1 .003.047zm-.047.062a.143.143 0 0 1 0 0zM27.183 37.125c.188-1.992 1.878-1.69 3.349-1.69h1.602v21.337c0 1.745 2.712 1.748 2.712 0V35.435h2.901c4.394 0 8.934-.082 13.342.369v1.872c0 1.745 2.712 1.748 2.712 0v-1.521c5.238.842 10.199 2.65 14.389 6.508 1.362 1.254 2.58 2.657 3.568 4.224a18.038 18.038 0 0 1 1.092 1.993c-.087.17-.16.353-.245.521a18.558 18.558 0 0 1-2.295 3.489c-3.546 4.273-8.563 6.961-13.897 8.304-4.299 1.082-8.615 1.149-12.983 1.149-.49-.832-1.861-.833-2.351-.001H32.67c-1.171 0-4.533.574-5.288-.715-.351-.598-.197-1.615-.197-2.261V48.89c-.002-3.873-.364-7.916-.002-11.765z"></path><path fill="#332195" d="M53.8 48.867V45.27c0-1.745-2.712-1.748-2.712 0v3.597c0 1.745 2.712 1.748 2.712 0zm2.441-6.038h3.598c1.745 0 1.748-2.712 0-2.712h-3.598c-1.746 0-1.748 2.712 0 2.712zm-11.192 0h3.598c1.745 0 1.748-2.712 0-2.712h-3.598c-1.744 0-1.747 2.712 0 2.712zm-1.44 13.926v-2.969c0-1.745-2.712-1.748-2.712 0v2.969c0 1.745 2.712 1.748 2.712 0zm4.746 1.778h-2.969c-1.745 0-1.748 2.712 0 2.712h2.969c1.745-.001 1.748-2.712 0-2.712zM36.15 61.244h2.969c1.745 0 1.748-2.712 0-2.712H36.15c-1.745.001-1.748 2.712 0 2.712z"></path></svg>