<svg width="65" height="65" viewBox="0 0 65 65" fill="none" xmlns="http://www.w3.org/2000/svg">
<circle cx="32.5" cy="32.5" r="32.5" fill="#2FB97B"/>
<path d="M43.1141 34.383L41.8769 33.3994C42.0181 32.3776 42.0192 31.3505 41.88 30.3377L43.1141 29.3565C43.2936 29.2139 43.3595 28.9584 43.274 28.737L42.0819 25.649C41.9964 25.4275 41.7813 25.2968 41.5606 25.3323L40.0414 25.5748C39.4724 24.7531 38.7948 24.0277 38.0215 23.4122L38.2482 21.7779C38.2811 21.5408 38.1594 21.3102 37.9531 21.2185L35.0752 19.9395C34.8689 19.8478 34.6307 19.9185 34.4978 20.1111L34.1999 20.5426V17.6364C34.1998 16.7341 33.5157 16 32.6747 16H31.6364C30.7954 16 30.1113 16.7341 30.1113 17.6364V20.5425L29.8133 20.111C29.6804 19.9184 29.4423 19.8477 29.236 19.9394L26.358 21.2184C26.1517 21.3101 26.03 21.5408 26.0629 21.7778L26.289 23.408C25.5232 24.0186 24.8472 24.7455 24.2736 25.5753L22.7505 25.3321C22.5295 25.2967 22.3146 25.4274 22.2292 25.6488L21.0371 28.7368C20.9516 28.9583 21.0175 29.2137 21.197 29.3563L22.4342 30.3399C22.293 31.3617 22.292 32.3888 22.4311 33.4016L21.197 34.3828C21.0175 34.5255 20.9516 34.7809 21.0371 35.0023L22.2292 38.0904C22.3147 38.3119 22.5299 38.4425 22.7505 38.4071L24.2698 38.1646C24.8388 38.9863 25.5163 39.7117 26.2896 40.3272L26.0629 41.9615C26.0301 42.1985 26.1517 42.4292 26.358 42.5209L29.236 43.8C29.4423 43.8918 29.6804 43.821 29.8133 43.6284L30.1113 43.1969V43.2624C30.1113 43.3132 30.1181 43.3638 30.1318 43.4124L31.6893 48.9833C31.7511 49.2043 31.9406 49.3557 32.1555 49.3557C32.3705 49.3557 32.56 49.2043 32.6218 48.9835L34.1793 43.4125C34.1929 43.3639 34.1998 43.3133 34.1998 43.2625V43.197L34.4978 43.6286C34.5918 43.7647 34.7383 43.84 34.889 43.84C34.9514 43.84 35.0146 43.827 35.0751 43.8002L37.953 42.5211C38.1594 42.4293 38.2811 42.1987 38.2482 41.9617L38.0221 40.3315C38.7879 39.7209 39.464 38.9938 40.0376 38.1642L41.5606 38.4074C41.7816 38.4428 41.9965 38.3121 42.0819 38.0907L43.274 35.0026C43.3595 34.7811 43.2936 34.5257 43.1141 34.383ZM31.0847 17.6364C31.0847 17.3101 31.3322 17.0445 31.6364 17.0445H32.6747C32.9789 17.0445 33.2264 17.3101 33.2264 17.6364V18.7855H31.0848V17.6364H31.0847ZM31.0847 19.83H33.2263V21.3892C32.5113 21.3035 31.7948 21.3025 31.0847 21.386V19.83V19.83ZM30.1113 35.7886C29.2971 35.2983 28.6492 34.5234 28.2883 33.5886C27.4687 31.4653 28.2855 29.0463 30.1113 27.9514V35.7886ZM32.1555 47.0158L31.2522 43.7847H33.0588L32.1555 47.0158ZM33.2264 42.7402H31.0848V27.5287C31.8035 27.3242 32.5399 27.3345 33.2264 27.5304V42.7402ZM30.1812 26.7551C27.5528 27.9233 26.3003 31.1682 27.389 33.9883C27.9019 35.3172 28.8856 36.3839 30.1113 36.9526V38.2218C28.4129 37.5958 27.0648 36.2423 26.3697 34.4414C25.0483 31.0181 26.5687 27.0794 29.759 25.6615C32.9494 24.2435 36.6199 25.8749 37.9414 29.2982C38.5816 30.9566 38.5816 32.7831 37.9414 34.4414C37.3013 36.0997 36.0977 37.3912 34.5522 38.0782C34.4363 38.1297 34.3185 38.1768 34.1999 38.2208V36.9513H34.1998C35.4391 36.3778 36.4045 35.3292 36.9222 33.9884C37.4495 32.6222 37.4495 31.1175 36.9222 29.7513C35.8334 26.9311 32.8095 25.5871 30.1812 26.7551ZM34.1998 35.7886V27.9539C34.993 28.4295 35.6489 29.1823 36.0227 30.151C36.4506 31.2594 36.4506 32.4802 36.0227 33.5887C35.6582 34.533 35.0195 35.2984 34.1998 35.7886ZM41.328 37.3142L39.8872 37.0842C39.7042 37.0549 39.5217 37.1395 39.416 37.3025C38.8137 38.2314 38.0745 39.0262 37.2191 39.6648C37.0672 39.7781 36.9883 39.974 37.0156 40.1704L37.2294 41.7121L35.0536 42.6792L34.1998 41.4425V39.3183C34.445 39.2404 34.6879 39.1484 34.9246 39.0432C36.7103 38.2496 38.1011 36.7572 38.8407 34.8412C39.5803 32.9251 39.5803 30.8146 38.8407 28.8986C37.3138 24.9432 33.0725 23.0582 29.3863 24.6966C25.7001 26.3349 23.9433 30.8858 25.4702 34.8413C26.3163 37.0334 27.9995 38.6519 30.1112 39.3181V41.4427L29.2572 42.6793L27.0815 41.7123L27.2959 40.1663C27.3231 39.97 27.2443 39.774 27.0924 39.6607C26.2267 39.0143 25.486 38.2212 24.8909 37.3033C24.7852 37.1404 24.6027 37.0557 24.4197 37.085L22.9829 37.3144L22.0816 34.9798L23.2487 34.0519C23.3974 33.9337 23.4708 33.7353 23.438 33.5399C23.254 32.4393 23.2551 31.3164 23.4413 30.2025C23.4739 30.0072 23.4006 29.8088 23.252 29.6907L22.0815 28.7601L22.9827 26.4255L24.4235 26.6555C24.6064 26.6847 24.789 26.6001 24.8946 26.4373C25.4971 25.5083 26.2363 24.7134 27.0916 24.0749C27.2434 23.9616 27.3223 23.7657 27.2951 23.5694L27.0813 22.0277L29.257 21.0606L30.1219 22.313C30.232 22.4726 30.4167 22.5512 30.5989 22.5161C31.6245 22.3187 32.6709 22.3198 33.7091 22.5196C33.8911 22.5546 34.0759 22.4759 34.1861 22.3165L35.0533 21.0605L37.2291 22.0276L37.0146 23.5737C36.9874 23.77 37.0662 23.9659 37.2181 24.0792C38.0839 24.7256 38.8245 25.5187 39.4197 26.4366C39.5253 26.5995 39.708 26.6843 39.8909 26.6549L41.3277 26.4255L42.2289 28.7601L41.0618 29.6881C40.9131 29.8062 40.8398 30.0046 40.8725 30.1999C41.0565 31.3006 41.0555 32.4234 40.8693 33.5373C40.8366 33.7326 40.9099 33.931 41.0586 34.0491L42.229 34.9797L41.328 37.3142Z" fill="white"/>
</svg>
