<svg width="228" height="64" viewBox="0 0 228 64" fill="none" xmlns="http://www.w3.org/2000/svg">
<circle cx="32" cy="32" r="32" fill="#2FB97B"/>
<path d="M40.4912 29.7784C40.9316 30.4728 41.2593 31.1962 41.4741 31.9485C41.689 32.7008 41.8018 33.4772 41.8125 34.2778V35.7679L31.5 40.412L21.1875 35.7679C21.1875 35.1892 21.1929 34.6491 21.2036 34.1476C21.2144 33.646 21.2627 33.159 21.3486 32.6863C21.4346 32.2137 21.5635 31.7411 21.7354 31.2685C21.9072 30.7959 22.165 30.2992 22.5088 29.7784L19.125 28.2593V36.7517C19.4365 36.8482 19.7158 36.9832 19.9629 37.1568C20.21 37.3304 20.4302 37.533 20.6235 37.7645C20.8169 37.9959 20.9565 38.2467 21.0425 38.5168C21.1284 38.7868 21.1768 39.0714 21.1875 39.3704V44H15V39.3704C15 39.081 15.0483 38.8013 15.145 38.5312C15.2417 38.2612 15.3813 38.0056 15.564 37.7645C15.7466 37.5233 15.9614 37.3208 16.2085 37.1568C16.4556 36.9929 16.7402 36.8578 17.0625 36.7517V27.3333L15 26.4074L31.5 19L48 26.4074L40.4912 29.7784ZM19.125 39.3704C19.125 39.1196 19.0229 38.9026 18.8188 38.7193C18.6147 38.5361 18.373 38.4444 18.0938 38.4444C17.8145 38.4444 17.5728 38.5361 17.3687 38.7193C17.1646 38.9026 17.0625 39.1196 17.0625 39.3704V42.1481H19.125V39.3704ZM19.6084 26.4074L31.5 31.7459L43.3916 26.4074L31.5 21.0689L19.6084 26.4074ZM39.75 34.625C39.75 33.8823 39.6694 33.1927 39.5083 32.5561C39.3472 31.9196 39.0625 31.2685 38.6543 30.603L31.5 33.8148L24.3457 30.603C23.9912 31.1624 23.7227 31.7508 23.54 32.3681C23.3574 32.9853 23.2607 33.6219 23.25 34.2778V34.625L31.5 38.3287L39.75 34.625Z" fill="white"/>
<path d="M84.8281 35.6094C84.8281 34.9355 84.6865 34.3643 84.4033 33.8955C84.1201 33.4268 83.6123 33.002 82.8799 32.6211C82.1475 32.2402 81.1074 31.8545 79.7598 31.4639C78.7051 31.1611 77.7529 30.8193 76.9033 30.4385C76.0635 30.0479 75.3408 29.6035 74.7354 29.1055C74.1299 28.6074 73.666 28.0361 73.3438 27.3916C73.0215 26.7471 72.8604 26.0098 72.8604 25.1797C72.8604 24.0664 73.1582 23.0752 73.7539 22.2061C74.3594 21.3271 75.2041 20.6387 76.2881 20.1406C77.3721 19.6328 78.6416 19.3789 80.0967 19.3789C81.708 19.3789 83.0752 19.6865 84.1982 20.3018C85.3213 20.9072 86.1758 21.7031 86.7617 22.6895C87.3477 23.666 87.6406 24.7109 87.6406 25.8242H84.7842C84.7842 25.0234 84.6133 24.3105 84.2715 23.6855C83.9395 23.0605 83.4268 22.5723 82.7334 22.2207C82.04 21.8594 81.1611 21.6787 80.0967 21.6787C79.1006 21.6787 78.2754 21.8301 77.6211 22.1328C76.9766 22.4355 76.498 22.8457 76.1855 23.3633C75.873 23.8809 75.7168 24.4717 75.7168 25.1357C75.7168 25.7314 75.8877 26.2637 76.2295 26.7324C76.5713 27.1914 77.1084 27.6064 77.8408 27.9775C78.5732 28.3486 79.5205 28.7002 80.6826 29.0322C82.2939 29.4814 83.6172 30.0039 84.6523 30.5996C85.6875 31.1953 86.4492 31.8984 86.9375 32.709C87.4355 33.5195 87.6846 34.4766 87.6846 35.5801C87.6846 36.7324 87.377 37.7383 86.7617 38.5977C86.1465 39.457 85.2822 40.1211 84.1689 40.5898C83.0557 41.0586 81.7471 41.293 80.2432 41.293C79.2568 41.293 78.2852 41.1562 77.3281 40.8828C76.3809 40.6094 75.5166 40.1992 74.7354 39.6523C73.9639 39.1055 73.3438 38.4316 72.875 37.6309C72.416 36.8203 72.1865 35.8828 72.1865 34.8184H75.0283C75.0283 35.5508 75.1699 36.1807 75.4531 36.708C75.7363 37.2354 76.1221 37.6699 76.6104 38.0117C77.0986 38.3535 77.6553 38.6074 78.2803 38.7734C78.9053 38.9297 79.5596 39.0078 80.2432 39.0078C81.2295 39.0078 82.0596 38.8711 82.7334 38.5977C83.417 38.3145 83.9346 37.9189 84.2861 37.4111C84.6475 36.9033 84.8281 36.3027 84.8281 35.6094ZM97.5283 27.2158H88.9443V25.1504H97.5283V27.2158ZM94.5693 21.2979V37.0742C94.5693 37.6211 94.6523 38.0312 94.8184 38.3047C94.9844 38.5781 95.1992 38.7588 95.4629 38.8467C95.7266 38.9346 96.0098 38.9785 96.3125 38.9785C96.5371 38.9785 96.7715 38.959 97.0156 38.9199C97.2695 38.8809 97.4551 38.8467 97.5723 38.8174L97.5869 41C97.3721 41.0684 97.0889 41.1318 96.7373 41.1904C96.3955 41.2588 95.9805 41.293 95.4922 41.293C94.8281 41.293 94.2178 41.1611 93.6611 40.8975C93.1045 40.6338 92.6602 40.1943 92.3281 39.5791C91.9961 38.9541 91.8301 38.1143 91.8301 37.0596V21.2979H94.5693ZM110.375 25.1504H113.114V41H110.507L110.375 37.3379V25.1504ZM112.03 33.9688C112.03 35.375 111.83 36.6299 111.43 37.7334C111.029 38.8369 110.375 39.7061 109.467 40.3408C108.559 40.9756 107.343 41.293 105.819 41.293C104.267 41.293 103.012 40.834 102.055 39.916C101.098 38.998 100.619 37.4844 100.619 35.375V25.1504H103.358V35.4043C103.358 36.3613 103.495 37.1035 103.769 37.6309C104.052 38.1484 104.413 38.5098 104.853 38.7148C105.302 38.9102 105.771 39.0078 106.259 39.0078C107.411 39.0078 108.324 38.7881 108.998 38.3486C109.672 37.8994 110.155 37.2939 110.448 36.5322C110.741 35.7705 110.888 34.9258 110.888 33.998L112.03 33.9688ZM128.041 35.375C128.041 34.8965 127.938 34.4814 127.733 34.1299C127.528 33.7783 127.133 33.4463 126.547 33.1338C125.971 32.8115 125.116 32.4697 123.983 32.1084C123.026 31.7959 122.113 31.4443 121.244 31.0537C120.385 30.6533 119.623 30.1895 118.959 29.6621C118.295 29.1348 117.772 28.5195 117.392 27.8164C117.011 27.1133 116.82 26.293 116.82 25.3555C116.82 24.1543 117.162 23.1094 117.846 22.2207C118.529 21.3223 119.467 20.624 120.658 20.126C121.859 19.6279 123.231 19.3789 124.774 19.3789C126.356 19.3789 127.738 19.6572 128.92 20.2139C130.102 20.7705 131.015 21.5469 131.659 22.543C132.313 23.5293 132.641 24.6719 132.641 25.9707H128.056C128.056 25.3945 127.934 24.8867 127.689 24.4473C127.445 23.998 127.074 23.6514 126.576 23.4072C126.088 23.1533 125.463 23.0264 124.701 23.0264C123.969 23.0264 123.358 23.1338 122.87 23.3486C122.382 23.5635 122.016 23.8467 121.771 24.1982C121.537 24.5498 121.42 24.9453 121.42 25.3848C121.42 25.8438 121.581 26.2441 121.903 26.5859C122.226 26.9277 122.694 27.2451 123.31 27.5381C123.925 27.8213 124.672 28.0996 125.551 28.373C127.104 28.8418 128.407 29.3936 129.462 30.0283C130.517 30.6631 131.308 31.415 131.835 32.2842C132.372 33.1436 132.641 34.1641 132.641 35.3457C132.641 36.5957 132.318 37.665 131.674 38.5537C131.039 39.4424 130.141 40.1211 128.979 40.5898C127.816 41.0586 126.449 41.293 124.877 41.293C123.803 41.293 122.748 41.1562 121.713 40.8828C120.688 40.5996 119.755 40.1699 118.915 39.5938C118.085 39.0078 117.421 38.2705 116.923 37.3818C116.425 36.4932 116.176 35.4385 116.176 34.2178H120.79C120.79 34.8525 120.883 35.3896 121.068 35.8291C121.264 36.2588 121.537 36.6104 121.889 36.8838C122.25 37.1572 122.68 37.3574 123.178 37.4844C123.686 37.6016 124.252 37.6602 124.877 37.6602C125.609 37.6602 126.205 37.5625 126.664 37.3672C127.133 37.1621 127.479 36.8887 127.704 36.5469C127.929 36.1953 128.041 35.8047 128.041 35.375ZM134.618 32.9287C134.618 31.3857 134.911 30.0088 135.497 28.7979C136.083 27.5771 136.938 26.6152 138.061 25.9121C139.184 25.209 140.546 24.8574 142.147 24.8574C143.769 24.8574 145.141 25.209 146.264 25.9121C147.396 26.6152 148.251 27.5771 148.827 28.7979C149.413 30.0088 149.706 31.3857 149.706 32.9287V33.2363C149.706 34.7695 149.413 36.1465 148.827 37.3672C148.251 38.5879 147.401 39.5498 146.278 40.2529C145.155 40.9463 143.788 41.293 142.177 41.293C140.565 41.293 139.193 40.9463 138.061 40.2529C136.938 39.5498 136.083 38.5879 135.497 37.3672C134.911 36.1465 134.618 34.7695 134.618 33.2363V32.9287ZM139.057 33.2363C139.057 34.0664 139.154 34.8232 139.35 35.5068C139.555 36.1904 139.882 36.7324 140.331 37.1328C140.79 37.5332 141.405 37.7334 142.177 37.7334C142.938 37.7334 143.544 37.5332 143.993 37.1328C144.452 36.7324 144.779 36.1904 144.975 35.5068C145.18 34.8232 145.282 34.0664 145.282 33.2363V32.9287C145.282 32.1182 145.18 31.3711 144.975 30.6875C144.779 29.9941 144.452 29.4424 143.993 29.0322C143.544 28.6221 142.929 28.417 142.147 28.417C141.386 28.417 140.775 28.6221 140.316 29.0322C139.867 29.4424 139.545 29.9941 139.35 30.6875C139.154 31.3711 139.057 32.1182 139.057 32.9287V33.2363ZM156.898 41H152.46V18.5H156.898V41ZM169.599 25.1504H174.022V41H169.877L169.599 37.1768V25.1504ZM171.371 33.8662C171.371 35.292 171.151 36.5664 170.712 37.6895C170.282 38.8027 169.628 39.6816 168.749 40.3262C167.88 40.9707 166.781 41.293 165.453 41.293C163.891 41.293 162.621 40.8389 161.645 39.9307C160.678 39.0127 160.194 37.5039 160.194 35.4043V25.1504H164.618V35.4336C164.618 35.9707 164.706 36.4102 164.882 36.752C165.067 37.084 165.321 37.3281 165.644 37.4844C165.976 37.6309 166.352 37.7041 166.771 37.7041C167.621 37.7041 168.285 37.5381 168.764 37.2061C169.252 36.874 169.594 36.4199 169.789 35.8438C169.994 35.2676 170.097 34.6182 170.097 33.8955L171.371 33.8662ZM185.067 28.373H175.707V25.1504H185.067V28.373ZM182.387 21.2393V36.0488C182.387 36.4785 182.44 36.8105 182.548 37.0449C182.665 37.2793 182.846 37.4404 183.09 37.5283C183.334 37.6162 183.637 37.6602 183.998 37.6602C184.262 37.6602 184.496 37.6504 184.701 37.6309C184.906 37.6113 185.082 37.5869 185.229 37.5576L185.214 40.8975C184.853 41.0244 184.457 41.1221 184.027 41.1904C183.607 41.2588 183.134 41.293 182.606 41.293C181.659 41.293 180.834 41.1367 180.131 40.8242C179.438 40.502 178.9 39.9941 178.52 39.3008C178.148 38.5977 177.963 37.6797 177.963 36.5469V21.2393H182.387ZM191.996 41H187.558V25.1504H191.996V41ZM187.294 21.0635C187.294 20.3994 187.519 19.8574 187.968 19.4375C188.417 19.0078 189.018 18.793 189.77 18.793C190.521 18.793 191.117 19.0078 191.557 19.4375C192.006 19.8574 192.23 20.3994 192.23 21.0635C192.23 21.7178 192.006 22.2598 191.557 22.6895C191.117 23.1191 190.521 23.334 189.77 23.334C189.018 23.334 188.417 23.1191 187.968 22.6895C187.519 22.2598 187.294 21.7178 187.294 21.0635ZM194.735 32.9287C194.735 31.3857 195.028 30.0088 195.614 28.7979C196.2 27.5771 197.055 26.6152 198.178 25.9121C199.301 25.209 200.663 24.8574 202.265 24.8574C203.886 24.8574 205.258 25.209 206.381 25.9121C207.514 26.6152 208.368 27.5771 208.944 28.7979C209.53 30.0088 209.823 31.3857 209.823 32.9287V33.2363C209.823 34.7695 209.53 36.1465 208.944 37.3672C208.368 38.5879 207.519 39.5498 206.396 40.2529C205.272 40.9463 203.905 41.293 202.294 41.293C200.683 41.293 199.311 40.9463 198.178 40.2529C197.055 39.5498 196.2 38.5879 195.614 37.3672C195.028 36.1465 194.735 34.7695 194.735 33.2363V32.9287ZM199.174 33.2363C199.174 34.0664 199.271 34.8232 199.467 35.5068C199.672 36.1904 199.999 36.7324 200.448 37.1328C200.907 37.5332 201.522 37.7334 202.294 37.7334C203.056 37.7334 203.661 37.5332 204.11 37.1328C204.569 36.7324 204.896 36.1904 205.092 35.5068C205.297 34.8232 205.399 34.0664 205.399 33.2363V32.9287C205.399 32.1182 205.297 31.3711 205.092 30.6875C204.896 29.9941 204.569 29.4424 204.11 29.0322C203.661 28.6221 203.046 28.417 202.265 28.417C201.503 28.417 200.893 28.6221 200.434 29.0322C199.984 29.4424 199.662 29.9941 199.467 30.6875C199.271 31.3711 199.174 32.1182 199.174 32.9287V33.2363ZM216.679 41H212.255V25.1504H216.415L216.679 28.5342V41ZM214.862 32.6064C214.862 31.0049 215.121 29.6279 215.639 28.4756C216.156 27.3135 216.884 26.4199 217.821 25.7949C218.759 25.1699 219.848 24.8574 221.088 24.8574C222.084 24.8574 222.953 25.0527 223.695 25.4434C224.447 25.834 225.033 26.4736 225.453 27.3623C225.883 28.2412 226.098 29.4375 226.098 30.9512V41H221.659V30.9219C221.659 30.2676 221.562 29.7646 221.366 29.4131C221.181 29.0518 220.907 28.8027 220.546 28.666C220.185 28.5195 219.74 28.4463 219.213 28.4463C218.676 28.4463 218.207 28.5488 217.807 28.7539C217.416 28.9492 217.089 29.2324 216.825 29.6035C216.571 29.9746 216.381 30.4141 216.254 30.9219C216.127 31.4199 216.063 31.9619 216.063 32.5479L214.862 32.6064Z" fill="black"/>
</svg>
