<svg xmlns="http://www.w3.org/2000/svg" viewBox="0 0 260 260" id="Assessment"><path fill="#f9f4ed" d="M158.905 248.342H30.975c-5.408 0-9.808-4.4-9.808-9.808V208.42c0-5.408 4.4-9.808 9.808-9.808H45.46c3.584 0 6.5-2.916 6.5-6.5s-2.916-6.5-6.5-6.5H18.47c-4.686 0-8.5-3.813-8.5-8.5v-41.75c0-4.687 3.814-8.5 8.5-8.5h22.9c3.584 0 6.5-2.916 6.5-6.5v-27.59c0-3.584-2.916-6.5-6.5-6.5H9.74c-4.687 0-8.5-3.813-8.5-8.5v-.74c0-4.687 3.813-8.5 8.5-8.5h115.45c3.584 0 6.5-2.916 6.5-6.5v-8.45c0-3.584-2.916-6.5-6.5-6.5h-20.275c-4.536 0-8.225-3.69-8.225-8.225s3.69-8.225 8.225-8.225H243.99c4.686 0 8.5 3.813 8.5 8.5v34.08c0 4.687-3.814 8.5-8.5 8.5h-40.9a6.508 6.508 0 0 0-6.5 6.5v8.02c0 3.584 2.916 6.5 6.5 6.5h27.595c4.204 0 7.625 3.42 7.625 7.625s-3.42 7.625-7.625 7.625H203.63a6.508 6.508 0 0 0-6.5 6.5v30.46c0 3.584 2.916 6.5 6.5 6.5h46.631c4.687 0 8.5 3.813 8.5 8.5v42.35c0 4.687-3.813 8.5-8.5 8.5H142.82c-2.984 0-5.41 2.427-5.41 5.41s2.426 5.41 5.41 5.41h16.085c4.535 0 8.224 3.69 8.224 8.225v.28c0 4.535-3.69 8.225-8.224 8.225zm-127.93-47.73c-4.305 0-7.808 3.503-7.808 7.808v30.114c0 4.305 3.503 7.808 7.808 7.808h127.93a6.232 6.232 0 0 0 6.224-6.225v-.28a6.232 6.232 0 0 0-6.224-6.225H142.82c-4.086 0-7.41-3.324-7.41-7.41s3.324-7.41 7.41-7.41h107.44c3.584 0 6.5-2.916 6.5-6.5v-42.35c0-3.584-2.916-6.5-6.5-6.5h-46.63c-4.687 0-8.5-3.813-8.5-8.5v-30.46c0-4.687 3.813-8.5 8.5-8.5h27.055a5.631 5.631 0 0 0 5.625-5.625 5.632 5.632 0 0 0-5.625-5.625H203.09c-4.686 0-8.5-3.813-8.5-8.5v-8.02c0-4.687 3.814-8.5 8.5-8.5h40.9c3.584 0 6.5-2.916 6.5-6.5v-34.08c0-3.584-2.916-6.5-6.5-6.5H104.915a6.232 6.232 0 0 0-6.225 6.225 6.232 6.232 0 0 0 6.225 6.225h20.275c4.686 0 8.5 3.813 8.5 8.5v8.45c0 4.687-3.814 8.5-8.5 8.5H9.74a6.508 6.508 0 0 0-6.5 6.5v.74c0 3.584 2.916 6.5 6.5 6.5h31.63c4.686 0 8.5 3.813 8.5 8.5v27.59c0 4.687-3.814 8.5-8.5 8.5h-22.9a6.508 6.508 0 0 0-6.5 6.5v41.75c0 3.584 2.916 6.5 6.5 6.5h26.99c4.686 0 8.5 3.813 8.5 8.5s-3.814 8.5-8.5 8.5H30.974zm174.702 46.646c-2.206 0-4-1.795-4-4s1.794-4 4-4 4 1.794 4 4-1.794 4-4 4zm0-6c-1.102 0-2 .897-2 2s.898 2 2 2 2-.897 2-2-.897-2-2-2z" class="coloredf5f9 svgShape"></path><path fill="#f9f4ed" d="M51.74 236.903a1 1 0 0 1-1-1v-3.838a1 1 0 1 1 2 0v3.838a1 1 0 0 1-1 1z" class="coloredf5f9 svgShape"></path><path fill="#f9f4ed" d="M53.659 234.984h-3.837a1 1 0 1 1 0-2h3.837a1 1 0 1 1 0 2zm190.782-49.093a1 1 0 0 1-1-1v-4.646a1 1 0 1 1 2 0v4.646a1 1 0 0 1-1 1z" class="coloredf5f9 svgShape"></path><path fill="#f9f4ed" d="M246.764 183.568h-4.646a1 1 0 1 1 0-2h4.646a1 1 0 1 1 0 2zm-33.66-137.03a1 1 0 0 1-1-1V40.89a1 1 0 1 1 2 0v4.646a1 1 0 0 1-1 1z" class="coloredf5f9 svgShape"></path><path fill="#f9f4ed" d="M215.427 44.215h-4.645a1 1 0 1 1 0-2h4.645a1 1 0 1 1 0 2zM63.95 24.302a1 1 0 0 1-1-1v-4.646a1 1 0 1 1 2 0v4.646a1 1 0 0 1-1 1z" class="coloredf5f9 svgShape"></path><path fill="#f9f4ed" d="M66.272 21.98h-4.647a1 1 0 1 1 0-2h4.647a1 1 0 1 1 0 2zm-16.32 24.735c-1.93 0-3.5-1.57-3.5-3.5s1.57-3.5 3.5-3.5 3.5 1.57 3.5 3.5-1.57 3.5-3.5 3.5zm0-5a1.501 1.501 0 1 0 1.5 1.5c0-.828-.672-1.5-1.5-1.5zm115.726-22.057c-2.206 0-4-1.794-4-4s1.794-4 4-4 4 1.794 4 4-1.794 4-4 4zm0-6c-1.102 0-2 .897-2 2s.898 2 2 2 2-.897 2-2-.897-2-2-2zM15.723 110.211c-1.654 0-3-1.346-3-3s1.346-3 3-3 3 1.346 3 3-1.346 3-3 3zm0-4a1.001 1.001 0 0 0 0 2 1.001 1.001 0 0 0 0-2zm5.208 56.872a1 1 0 0 1-1-1v-3.625a1 1 0 1 1 2 0v3.625a1 1 0 0 1-1 1z" class="coloredf5f9 svgShape"></path><path fill="#f9f4ed" d="M22.744 161.27h-3.625a1 1 0 1 1 0-2h3.625a1 1 0 1 1 0 2zm229.187-58.75a1 1 0 0 1-1-1v-3.625a1 1 0 1 1 2 0v3.624a1 1 0 0 1-1 1z" class="coloredf5f9 svgShape"></path><path fill="#f9f4ed" d="M253.744 100.707h-3.625a1 1 0 1 1 0-2h3.625a1 1 0 1 1 0 2zM74.272 101.91c-1.354 0-2.454-1.101-2.454-2.454s1.1-2.454 2.454-2.454 2.455 1.1 2.455 2.454-1.102 2.454-2.455 2.454zm0-2.908a.455.455 0 1 0 .001.91.455.455 0 0 0-.001-.91z" class="coloredf5f9 svgShape"></path><path fill="#ffffff" d="M105.319 58.865v75.924c0 5.927-4.807 10.733-10.733 10.733H55.603V69.598c0-5.927 4.806-10.733 10.733-10.733h38.983z" class="colorffffff svgShape"></path><path fill="#544643" d="M165.308 32.374v165.542a5.828 5.828 0 0 1-4.207 5.598l-93.828 27.18c-10.103 2.926-20.191-4.655-20.191-15.173V70.735a15.796 15.796 0 0 1 11.401-15.173l99.375-28.786c3.728-1.08 7.45 1.717 7.45 5.598z" class="color434a54 svgShape"></path><path fill="#544643" d="M188.14 69.597V225.81c0 5.927-4.806 10.732-10.733 10.732H57.815c-5.928 0-10.733-4.805-10.733-10.732V69.597c0-5.927 4.805-10.732 10.733-10.732h119.592c5.927 0 10.732 4.805 10.732 10.732z" class="color434a54 svgShape"></path><path fill="#ffc472" d="M173.825 32.377v165.535a5.819 5.819 0 0 1-4.2 5.6L80.97 229.198l-5.177 1.5a15.641 15.641 0 0 1-13.533-2.304c-3.975-2.818-6.658-7.453-6.658-12.874V70.736A15.804 15.804 0 0 1 67.004 55.56l13.94-4.039 85.437-24.745c3.722-1.075 7.444 1.717 7.444 5.602z" class="colorffd372 svgShape"></path><path fill="#ffbf66" d="M173.825 66.953V51.52h-92.88l-13.94 4.039a15.805 15.805 0 0 0-10.941 11.394h117.761z" class="colorffb85a svgShape"></path><path fill="#f9f4ed" d="M196.664 69.598v156.211c0 5.927-4.806 10.733-10.733 10.733H66.336c-5.927 0-10.733-4.806-10.733-10.733V69.598c0-5.927 4.806-10.733 10.733-10.733H185.93c5.927 0 10.733 4.806 10.733 10.733z" class="coloredf5f9 svgShape"></path><path fill="#e7dac9" d="M196.664 69.598v156.211c0 5.927-4.806 10.733-10.733 10.733H66.336c-5.927 0-10.733-4.806-10.733-10.733v-2.7h116.912c5.927 0 10.733-4.807 10.733-10.733V58.865h2.683c5.927 0 10.733 4.806 10.733 10.733z" class="colorc9dbe7 svgShape"></path><path fill="#544643" d="M159.056 26.542h9.406" class="color434a54 svgShape"></path><path fill="#ff7b60" d="m199.198 172.327 12.263 14.442a3.848 3.848 0 0 1-.443 5.423l-18.433 15.653a3.848 3.848 0 0 1-5.424-.442l-12.263-14.442 24.3-20.634z" class="colorff6060 svgShape"></path><path fill="#f4674a" d="m211.02 192.193-18.432 15.654a3.858 3.858 0 0 1-5.426-.445l-12.26-14.443 3.034-2.58 8.384 9.868a3.84 3.84 0 0 0 5.426.444l18.329-15.559 1.39 1.635a3.859 3.859 0 0 1-.445 5.426z" class="colorf44a4a svgShape"></path><path fill="#ff7b60" d="M234.264 226.96a9.562 9.562 0 0 1-3.384 7.306c-4.027 3.422-10.076 2.93-13.498-1.106l-22.875-26.94 10.549-8.96 4.045-3.44 17.015 20.038 5.87 6.91a9.508 9.508 0 0 1 2.278 6.192z" class="colorff6060 svgShape"></path><path fill="#ff8066" d="M226.116 213.858c-3.413.842-7.165-.226-9.595-3.09l-11.465-13.508 4.045-3.44 17.015 20.038z" class="colorff8383 svgShape"></path><path fill="#f4674a" d="M234.264 226.96a9.562 9.562 0 0 1-3.384 7.306c-4.027 3.422-10.076 2.93-13.498-1.106l-22.875-26.94 3.043-2.58 18.99 22.374c3.422 4.027 9.472 4.519 13.498 1.097a9.582 9.582 0 0 0 3.044-4.745 9.45 9.45 0 0 1 1.182 4.594z" class="colorf44a4a svgShape"></path><path fill="#989595" d="M196.464 193.734c-18.358 15.578-45.865 13.337-61.452-5.02-8.564-10.075-11.75-22.922-9.83-35.04a43.434 43.434 0 0 1 14.84-26.41c16.268-13.81 39.73-13.621 55.704-.624a43.674 43.674 0 0 1 5.747 5.634c15.587 18.356 13.347 45.873-5.01 61.46z" class="color959698 svgShape"></path><path fill="#ffffff" d="M195.726 126.64a43.452 43.452 0 0 1-14.85 26.42c-16.258 13.8-39.72 13.62-55.694.614a43.434 43.434 0 0 1 14.84-26.41c16.268-13.81 39.73-13.621 55.704-.624z" opacity=".4" class="colorffffff svgShape"></path><path fill="#7c7776" d="M196.464 193.734c-18.358 15.578-45.865 13.337-61.452-5.02-7.779-9.159-11.116-20.606-10.227-31.703.709 8.791 4.083 17.44 10.227 24.68 15.587 18.357 43.094 20.598 61.452 5.02 9.187-7.808 14.339-18.603 15.237-29.747 1.087 13.507-4.122 27.327-15.237 36.77z" class="color76797c svgShape"></path><path fill="#ffffff" d="M146.299 179.13c10.29 12.116 28.458 13.597 40.573 3.307 12.114-10.29 13.596-28.449 3.306-40.573-10.28-12.115-28.449-13.596-40.564-3.306-12.115 10.29-13.596 28.458-3.315 40.573z" class="colorffffff svgShape"></path><path fill="#f9f4ed" d="M146.299 179.13c10.29 12.116 28.458 13.597 40.573 3.307a29.028 29.028 0 0 0 6.233-7.417l-.37.316c-12.115 10.29-30.283 8.809-40.573-3.306-8.113-9.568-8.899-22.902-2.918-33.156-11.772 10.344-13.118 28.268-2.945 40.257z" class="coloredf5f9 svgShape"></path><path fill="#4c3631" d="M174.978 213.86H77.285a1 1 0 1 0 0 2h97.693a1 1 0 1 0 0-2zM86.536 81.547h79.191a1 1 0 1 0 0-2H86.536a1 1 0 1 0 0 2zm-9.251 107.45h35.21a1 1 0 1 0 0-2h-35.21a1 1 0 1 0 0 2zm0-80.587h97.693a1 1 0 1 0 0-2H77.285a1 1 0 1 0 0 2zm0 53.725h35.21a1 1 0 1 0 0-2h-35.21a1 1 0 1 0 0 2zm0-26.863h35.21a1 1 0 1 0 0-2h-35.21a1 1 0 1 0 0 2z" class="color31394c svgShape"></path><path fill="#4c3631" d="m232.743 220.125-22.23-26.19 1.15-.98a4.836 4.836 0 0 0 .56-6.83l-4.35-5.12c7.894-15.258 6.666-34.878-5.64-49.37a45.414 45.414 0 0 0-4.57-4.646V69.594c0-6.47-5.27-11.73-11.74-11.73h-11.09v-25.49c0-3.615-2.75-6.426-6.1-6.79h-.01c-.023-.003-.048-.001-.072-.004-.063-.012-.122-.038-.189-.038-3.537.019-9.113-.041-9.689.052-.054-.054-1.006.168-1.19.22l-99.38 28.79c-7.828 2.267-12.12 9.885-12.12 14.99V225.814c0 6.46 5.26 11.73 11.73 11.73h128.11c6.47 0 11.74-5.27 11.74-11.73v-14.328c5.946 7 14.175 16.693 18.96 22.328 3.745 4.41 10.438 5.009 14.91 1.21 4.447-3.784 4.998-10.45 1.21-14.9zm-22.04-32.71a2.87 2.87 0 0 1-.33 4.02c-1.041.884-17.124 14.52-18.44 15.65a2.843 2.843 0 0 1-4.01-.33l-3.86-4.55c4.676-1.754 9.126-4.381 13.04-7.71 3.656-3.083 7.092-7.071 9.74-11.62l3.86 4.54zm-9.99-54.49c15.507 18.287 12.707 45.19-4.9 60.05-20.963 16.669-46.314 11.271-60.04-4.91-15.232-17.92-13.062-44.8 4.9-60.03 17.468-14.836 44.373-13.526 60.04 4.89zm-27.88-100.55v25.49H64.123c.98-.56 2.04-1.02 3.16-1.34l99.37-28.79c.45-.13.91-.19 1.36-.19 2.606 0 4.82 2.119 4.82 4.83zm-14.7-4.64a4.885 4.885 0 0 1 1.88-.16l-93.29 27.03c-2.28.66-4.34 1.79-6.09 3.26-2.26.052-3.598-.163-5.59.33 3.194-2.018-.92-.12 103.09-30.46zm-100.32 207.81c-5.37 0-9.73-4.37-9.73-9.73V70.734c0-9.213 5.783-9.614 10.54-10.87-4.66 5.495-3.961 10.617-4.02 10.87V225.815c0 .71.06 1.41.19 2.09.17.98.47 1.91.88 2.79.9 1.97 2.34 3.65 4.12 4.85h-1.98zm137.85-9.73c0 5.36-4.37 9.73-9.74 9.73H66.333c-3.11 0-5.89-1.48-7.68-3.76-.61-.78-1.1-1.65-1.44-2.59-.4-1.05-.61-2.19-.61-3.38V70.734c0-7.13 4.63-10.87 9.73-10.87h119.59c5.37 0 9.74 4.37 9.74 9.73v55.722c-16.435-12.868-39.98-12.656-56.29 1.188-18.773 15.94-21.087 44.067-5.13 62.86 12.07 14.215 31.18 19.002 47.81 13.56l4.35 5.13c1.626 1.92 4.654 2.384 6.83.55l1.15-.98 1.28 1.506v16.683zm34.57 7.69c-3.6 3.06-9.03 2.62-12.09-.99l-.316-.373.002.002-.004-.004.002.001a4388367.535 4388367.535 0 0 1-21.913-25.807l13.07-11.1 22.24 26.18a8.575 8.575 0 0 1-.99 12.09zm-12.392-1.347c.004.005.005.006 0 0zm-.08-.094a3.47 3.47 0 0 0-.03-.035l.03.035z" class="color31394c svgShape"></path><path fill="#4c3631" d="M190.943 141.215c-10.829-12.698-29.56-13.957-41.98-3.42-6.93 5.88-10.49 14.28-10.49 22.73 0 6.81 2.32 13.66 7.06 19.25 10.6 12.454 29.351 14.11 41.99 3.42 12.796-10.967 13.804-29.728 3.42-41.98zm-3.8 39.63c-10.93 10.565-29.608 9.945-40.08-2.36-9.91-11.68-8.48-29.25 3.2-39.16 11.866-10.108 29.76-8.293 39.15 3.19 9.64 11.353 8.538 28.436-2.27 38.33z" class="color31394c svgShape"></path><path fill="#544643" d="M164.916 148.862v12.767a3.323 3.323 0 0 0 3.326 3.32 3.323 3.323 0 0 0 3.326-3.32v-12.767a3.324 3.324 0 0 0-3.326-3.326 3.326 3.326 0 0 0-3.326 3.326zm.047 23.325a3.276 3.276 0 0 0 3.283 3.275 3.274 3.274 0 1 0 0-6.55 3.276 3.276 0 0 0-3.283 3.275z" class="color434a54 svgShape"></path></svg>