<svg xmlns="http://www.w3.org/2000/svg" viewBox="0 0 256 256" id="back-end-development"><path fill="#939598" d="M99.627 198.488h56.746v31.779H99.627z"></path><path fill="#808285" d="M151.373 198.488v21.779a5 5 0 0 1-5 5H99.627v5h56.746v-31.779h-5z"></path><path fill="#58595B" d="M75.339 250.195H180.66c3.72 0 6.137-3.918 4.469-7.243l-3.598-7.17a9.999 9.999 0 0 0-8.938-5.515H83.406a10.001 10.001 0 0 0-8.938 5.515l-3.598 7.17c-1.668 3.325.749 7.243 4.469 7.243z"></path><path fill="#414042" d="m185.13 242.952-3.598-7.17a9.991 9.991 0 0 0-4.807-4.615l3.405 6.785c1.669 3.325-.749 7.243-4.469 7.243H70.343c.002 2.622 2.099 5 4.996 5H180.66c3.721 0 6.138-3.918 4.47-7.243z"></path><path fill="#58595B" d="M21.315 198.488h213.37c5.523 0 10-4.477 10-10V42.196c0-5.523-4.477-10-10-10H21.315c-5.523 0-10 4.477-10 10v146.292c0 5.523 4.477 10 10 10z"></path><path fill="#414042" d="M238.794 33.087a9.95 9.95 0 0 1 .89 4.11v146.292c0 5.523-4.477 10-10 10H16.315a9.954 9.954 0 0 1-4.11-.89c1.569 3.471 5.053 5.89 9.11 5.89h213.37c5.523 0 10-4.477 10-10V42.196c0-4.056-2.42-7.541-5.891-9.109z"></path><path fill="#B2B0AD" d="M137.667 189.085h-19.333a4 4 0 0 1 0-8h19.333a4 4 0 0 1 0 8z"></path><path fill="#478CF7" d="M24.829 171.222h206.343a5 5 0 0 0 5-5V46.462a5 5 0 0 0-5-5H24.829a5 5 0 0 0-5 5v119.761a4.999 4.999 0 0 0 5 4.999z"></path><path fill="#5E9CF7" d="M25.829 138.695a2 2 0 0 1-2-2v-58a2 2 0 0 1 4 0v58a2 2 0 0 1-2 2zm0-66a2 2 0 0 1-2-2v-.5a2 2 0 0 1 4 0v.5a2 2 0 0 1-2 2z"></path><path fill="#377DE2" d="M231.171 41.462h-5v114.76a5 5 0 0 1-5 5H19.829v5a5 5 0 0 0 5 5h206.343a5 5 0 0 0 5-5V46.462a5 5 0 0 0-5.001-5z"></path><path fill="#2266D3" d="M231.171 41.462v119.76a5 5 0 0 1-5 5H19.829a5 5 0 0 0 5 5h206.343a5 5 0 0 0 5-5V46.462a5 5 0 0 0-5.001-5z"></path><path fill="#FFC91D" d="M172.231 114.814H79.816a2 2 0 0 1 0-4h92.415a2 2 0 0 1 0 4zm-103.355 0H41.831a2 2 0 0 1 0-4h27.045a2 2 0 0 1 0 4zm145.293 12.764h-27.917a2 2 0 0 1 0-4h27.917a2 2 0 0 1 0 4zm-37.335 0H50.947a2 2 0 0 1 0-4h125.887a2 2 0 0 1 0 4zm37.335 12.764H84.535a2 2 0 0 1 0-4H214.17a2 2 0 0 1-.001 4zm-140.734 0H50.947a2 2 0 0 1 0-4h22.487a2 2 0 0 1 .001 4zm98.796 12.764H73.435a2 2 0 0 1 0-4h98.797a2 2 0 0 1-.001 4zm-106.09 0h-24.31a2 2 0 0 1 0-4h24.311a2 2 0 0 1-.001 4z"></path><path fill="#FFF" d="M63.993 88.656c-.316 0-.637-.075-.936-.234L40.893 76.649a1.998 1.998 0 0 1 0-3.532l22.164-11.772a1.999 1.999 0 1 1 1.876 3.532L46.094 74.883l18.838 10.006a1.998 1.998 0 0 1 .828 2.704 1.997 1.997 0 0 1-1.767 1.063zm25.655 0a2 2 0 0 1-.94-3.767l18.838-10.006-18.838-10.006a1.998 1.998 0 0 1-.828-2.704 1.997 1.997 0 0 1 2.704-.828l22.164 11.772a2 2 0 0 1 0 3.532L90.584 88.421c-.298.16-.619.235-.936.235zM69.768 95.196a2 2 0 0 1-1.865-2.719l14.105-36.625a2 2 0 1 1 3.732 1.438L71.634 93.914a2 2 0 0 1-1.866 1.282z"></path><path fill="#A54AF4" d="M174.746 73.961c-21.823 0-39.515-5.456-39.515-12.186v21.953c0 6.73 17.691 12.186 39.515 12.186 21.823 0 39.515-5.456 39.515-12.186V61.775c0 6.73-17.691 12.186-39.515 12.186z"></path><path fill="#893ADD" d="M210.4 67.034v12.833c0 6.73-17.691 12.186-39.515 12.186-15.435 0-28.794-2.731-35.298-6.709 2.563 5.966 19.112 10.571 39.159 10.571 21.823 0 39.515-5.456 39.515-12.186V61.776c0 1.883-1.387 3.666-3.861 5.258z"></path><circle cx="147.03" cy="80.123" r="3.512" fill="#FFC91D"></circle><circle cx="160.088" cy="83.556" r="3.512" fill="#FFC91D"></circle><path fill="#A54AF4" d="M174.746 52.008c-21.823 0-39.515-5.456-39.515-12.186v21.953c0 6.73 17.691 12.186 39.515 12.186 21.823 0 39.515-5.456 39.515-12.186V39.822c0 6.73-17.691 12.186-39.515 12.186z"></path><path fill="#893ADD" d="M210.4 45.081v12.833c0 6.73-17.691 12.186-39.515 12.186-15.435 0-28.794-2.731-35.298-6.71 2.563 5.966 19.112 10.571 39.159 10.571 21.823 0 39.515-5.456 39.515-12.186V39.822c0 1.884-1.387 3.667-3.861 5.259z"></path><circle cx="147.03" cy="58.17" r="3.512" fill="#FFC91D"></circle><circle cx="160.088" cy="61.603" r="3.512" fill="#FFC91D"></circle><path fill="#A54AF4" d="M174.746 30.177c-21.823 0-39.515-5.456-39.515-12.186v21.831c0 6.73 17.691 12.186 39.515 12.186 21.823 0 39.515-5.456 39.515-12.186V17.991c0 6.73-17.691 12.186-39.515 12.186z"></path><path fill="#893ADD" d="M210.4 23.25v12.711c0 6.73-17.691 12.186-39.515 12.186-15.435 0-28.794-2.73-35.298-6.709 2.563 5.966 19.112 10.571 39.159 10.571 21.823 0 39.515-5.456 39.515-12.186V17.992c0 1.883-1.387 3.666-3.861 5.258z"></path><circle cx="147.03" cy="36.218" r="3.512" fill="#FFC91D"></circle><circle cx="160.088" cy="39.65" r="3.512" fill="#FFC91D"></circle><ellipse cx="174.746" cy="17.991" fill="#893ADD" rx="39.515" ry="12.186"></ellipse><path fill="#6C2BC1" d="M210.044 12.515a4.08 4.08 0 0 1 .356 1.615c0 6.73-17.691 12.186-39.515 12.186-15.435 0-28.794-2.731-35.297-6.71 2.563 5.966 19.112 10.571 39.159 10.571 21.823 0 39.515-5.456 39.515-12.186-.001-1.97-1.526-3.829-4.218-5.476z"></path></svg>