<svg xmlns="http://www.w3.org/2000/svg" enable-background="new 0 0 24 24" viewBox="0 0 24 24" id="database"><path fill="#ffbf66" d="M16 10H8a4 4 0 0 1-4-4v6a4.004 4.004 0 0 0 4 4h8a4.004 4.004 0 0 0 4-4V6a4 4 0 0 1-4 4z" class="colord8d8ff svgShape"></path><path fill="#ffdeb1" d="M16 16H8a4.004 4.004 0 0 1-4-4v6a4.004 4.004 0 0 0 4 4h8a4.004 4.004 0 0 0 4-4v-6a4.004 4.004 0 0 1-4 4z" class="colorb2b1ff svgShape"></path><path fill="#ffbf66" d="M20 5.998V6v-.001z" class="colord8d8ff svgShape"></path><path fill="#ffdeb1" d="M16 10H8a4 4 0 1 1 0-8h8a4 4 0 1 1 0 8z" class="colorb2b1ff svgShape"></path><circle cx="8" cy="13" r="1" fill="#ff8066" class="color6563ff svgShape"></circle><circle cx="8" cy="19" r="1" fill="#ff8066" class="color6563ff svgShape"></circle></svg>