<svg xmlns="http://www.w3.org/2000/svg" width="16" height="16" id="express-js"><g fill="none" fill-rule="evenodd"><path stroke="#B08CBA" stroke-linecap="round" d="M4.003 12.503c-.271 0-.517-.027-1.103-.416-.586-.389-.9-1.077-.9-1.784V5.661c0-.707.377-1.361.99-1.715l4.02-2.32a1.98 1.98 0 0 1 1.98 0l4.02 2.32A1.98 1.98 0 0 1 14 5.661v4.642a1.98 1.98 0 0 1-.99 1.715l-4.02 2.32a1.98 1.98 0 0 1-1.98 0l-.692-.399"></path><path stroke="#B08CBA" stroke-linecap="round" d="M5.8 5.56v5c0 1.105-.692 1.943-1.797 1.943"></path><path fill="#B08CBA" fill-rule="nonzero" d="M9.511 11.094c1.317 0 2.153-.668 2.153-1.73 0-.82-.485-1.293-1.668-1.543l-.614-.13c-.73-.155-1.023-.429-1.023-.839 0-.516.488-.836 1.148-.836.563 0 .993.223 1.184.742.09.203.219.301.43.301.226 0 .386-.148.386-.375a.6.6 0 0 0-.03-.203c-.22-.754-.985-1.211-1.958-1.211-1.199 0-2.047.664-2.047 1.629 0 .812.512 1.336 1.637 1.574l.617.129c.754.164 1.051.438 1.051.875 0 .504-.512.871-1.227.871-.652 0-1.164-.246-1.34-.773-.085-.211-.214-.301-.413-.301-.239 0-.395.164-.395.418 0 .094.02.187.047.273.219.657.969 1.13 2.062 1.13Z"></path></g></svg>