<svg xmlns="http://www.w3.org/2000/svg" viewBox="0 0 256 256" id="frontend"><path fill="#89828F" d="M5.97 16.722h244.059v188.465H5.97z"></path><path fill="#A4A4A6" d="M5.971 16.718h16.775v188.468H5.971z"></path><path fill="#7E6E85" d="M233.255 16.718h16.775v188.468h-16.775z"></path><path fill="#FFE2E2" d="M232.767 33.984v133.94H23.233V33.984z"></path><path fill="#FFEEED" d="M23.237 33.984h16.775v133.935H23.237z"></path><path fill="#FFCFCF" d="M215.988 33.984h16.775v133.935h-16.775z"></path><path fill="#89828F" d="M95.398 205.186h65.204v34.092H95.398z"></path><path fill="#7E6E85" d="M145.6 205.182h15v34.1h-15z"></path><path fill="#A4A4A6" d="M95.4 205.182h15v34.1h-15z"></path><path fill="#FF4975" d="M43.871 54.703h106.832v31.604H43.871z"></path><path fill="#5FCDFF" d="M43.871 104.842h64.059v45.624H43.871z"></path><circle cx="190.726" cy="70.505" r="21.402" fill="#FFD30F"></circle><g fill="#5F266D"><path d="M250.03 12.723H5.97a4 4 0 0 0-4 4v188.464a4 4 0 0 0 4 4h85.428v26.091H43.871c-5.285 0-5.292 8 0 8h168.258c5.285 0 5.292-8 0-8h-47.527v-26.091h85.428a4 4 0 0 0 4-4V16.723a4 4 0 0 0-4-4zm-93.428 222.554H99.398v-26.091h57.204v26.091zm89.428-34.09H9.97V20.723h236.06v180.464z"></path><path d="M23.232 171.925h209.535a4 4 0 0 0 4-4V33.984a4 4 0 0 0-4-4H23.232a4 4 0 0 0-4 4v133.94a4 4 0 0 0 4 4.001zm4-133.941h201.535v125.94H27.232V37.984zm106.56 144.422h-11.584a4 4 0 0 0 0 8h11.584a4 4 0 0 0 0-8z"></path><path d="M43.871 90.307h106.832a4 4 0 0 0 4-4V54.703a4 4 0 0 0-4-4H43.871a4 4 0 0 0-4 4v31.604a4 4 0 0 0 4 4zm4-31.604h98.832v23.604H47.871V58.703zm142.855-13.6c-14.007 0-25.402 11.396-25.402 25.402s11.396 25.402 25.402 25.402c14.007 0 25.403-11.396 25.403-25.402s-11.396-25.402-25.403-25.402zm0 42.804c-9.596 0-17.402-7.807-17.402-17.402s7.807-17.402 17.402-17.402c9.596 0 17.403 7.807 17.403 17.402s-7.807 17.402-17.403 17.402zm-82.795 12.935h-64.06a4 4 0 0 0-4 4v45.624c0 2.166 1.789 4 4 4h64.06c2.194 0 4-1.815 4-4v-45.624a4 4 0 0 0-4-4zm-4 8v33.403l-17.769-13.937a3.999 3.999 0 0 0-5.136.167l-3.748 3.354-5.09-8.347c-1.354-2.222-4.424-2.566-6.244-.746l-18.073 18.073v-31.967h56.06zm-50.403 37.624 14.477-14.477 4.944 8.107c1.286 2.11 4.2 2.585 6.083.898l4.831-4.323 12.487 9.794H53.528zm151.601-36.595h-72.832a4 4 0 0 0 0 8h72.832a4 4 0 0 0 0-8zm-38.832 24.144h-34a4 4 0 0 0 0 8h34a4 4 0 0 0 0-8zm23.832 0h-8.832a4 4 0 0 0 0 8h8.832a4 4 0 0 0 0-8z"></path></g></svg>