<svg xmlns="http://www.w3.org/2000/svg" enable-background="new 0 0 64 64" viewBox="0 0 64 64" id="programming-language"><path fill="#ffd740" d="M58,36H42c-0.552,0-1-0.448-1-1V25c0-0.552,0.448-1,1-1h16c0.552,0,1,0.448,1,1v10C59,35.552,58.552,36,58,36
			z"></path><path fill="#263238" d="M58,36.5H42c-0.827,0-1.5-0.673-1.5-1.5V25c0-0.827,0.673-1.5,1.5-1.5h16c0.827,0,1.5,0.673,1.5,1.5v10
			C59.5,35.827,58.827,36.5,58,36.5z M42,24.5c-0.275,0-0.5,0.224-0.5,0.5v10c0,0.276,0.225,0.5,0.5,0.5h16
			c0.275,0,0.5-0.224,0.5-0.5V25c0-0.276-0.225-0.5-0.5-0.5H42z"></path><path fill="#263238" d="M47.25 33c-.128 0-.256-.049-.354-.146l-2.5-2.5c-.195-.195-.195-.512 0-.707l2.5-2.5c.195-.195.512-.195.707 0s.195.512 0 .707L45.457 30l2.146 2.146c.195.195.195.512 0 .707C47.506 32.951 47.378 33 47.25 33zM52.75 33c-.128 0-.256-.049-.354-.146-.195-.195-.195-.512 0-.707L54.543 30l-2.146-2.146c-.195-.195-.195-.512 0-.707s.512-.195.707 0l2.5 2.5c.195.195.195.512 0 .707l-2.5 2.5C53.006 32.951 52.878 33 52.75 33zM48.75 33.5c-.064 0-.13-.012-.192-.039-.255-.106-.375-.399-.27-.654l2.5-6c.106-.255.403-.375.654-.269.255.106.375.399.27.654l-2.5 6C49.132 33.384 48.945 33.5 48.75 33.5zM34 25.5H19c-.276 0-.5-.224-.5-.5s.224-.5.5-.5h15c.276 0 .5.224.5.5S34.276 25.5 34 25.5zM34 28.5H19c-.276 0-.5-.224-.5-.5s.224-.5.5-.5h15c.276 0 .5.224.5.5S34.276 28.5 34 28.5zM26.5 33.5H19c-.276 0-.5-.224-.5-.5s.224-.5.5-.5h7.5c.276 0 .5.224.5.5S26.776 33.5 26.5 33.5zM34 36.5H19c-.276 0-.5-.224-.5-.5s.224-.5.5-.5h15c.276 0 .5.224.5.5S34.276 36.5 34 36.5zM34 39.5H19c-.276 0-.5-.224-.5-.5s.224-.5.5-.5h15c.276 0 .5.224.5.5S34.276 39.5 34 39.5zM26.5 44.5H19c-.276 0-.5-.224-.5-.5s.224-.5.5-.5h7.5c.276 0 .5.224.5.5S26.776 44.5 26.5 44.5z"></path><path fill="#263238" d="M41.989 56.5H16.5c-1.654 0-3-1.346-3-3V16c0-.276.224-.5.5-.5h36c.276 0 .5.224.5.5v6c0 .276-.224.5-.5.5s-.5-.224-.5-.5v-5.5h-35v37c0 1.103.897 2 2 2h25.49c.276 0 .5.224.5.5S42.266 56.5 41.989 56.5zM16 6.5h-4c-.276 0-.5-.224-.5-.5s.224-.5.5-.5h4c.276 0 .5.224.5.5S16.276 6.5 16 6.5z"></path><path fill="#263238" d="M14 8.5c-.276 0-.5-.224-.5-.5V4c0-.276.224-.5.5-.5s.5.224.5.5v4C14.5 8.276 14.276 8.5 14 8.5zM9 13H5c-.276 0-.5-.224-.5-.5S4.724 12 5 12h4c.276 0 .5.224.5.5S9.276 13 9 13z"></path><path fill="#263238" d="M7 15c-.276 0-.5-.224-.5-.5v-4C6.5 10.224 6.724 10 7 10s.5.224.5.5v4C7.5 14.776 7.276 15 7 15zM23.5 60.5h-1c-.276 0-.5-.224-.5-.5s.224-.5.5-.5h1c.276 0 .5.224.5.5S23.776 60.5 23.5 60.5zM41.5 60.5h-16c-.276 0-.5-.224-.5-.5s.224-.5.5-.5h16c.276 0 .5.224.5.5S41.776 60.5 41.5 60.5z"></path><path fill="#ff5252" d="M50,16H14v-2.5c0-1.381,1.119-2.5,2.5-2.5h31c1.381,0,2.5,1.119,2.5,2.5V16z"></path><path fill="#263238" d="M50,16.5H14c-0.276,0-0.5-0.224-0.5-0.5v-2.5c0-1.654,1.346-3,3-3h31c1.654,0,3,1.346,3,3V16
			C50.5,16.276,50.276,16.5,50,16.5z M14.5,15.5h35v-2c0-1.103-0.897-2-2-2h-31c-1.103,0-2,0.897-2,2V15.5z"></path><path fill="#40c4ff" d="M56.69,49.975c0.106-0.475,0.166-0.968,0.166-1.475s-0.06-1-0.166-1.475l0.276-0.158l0.691-0.602
			c0.361-0.315,0.448-0.841,0.207-1.254l-0.888-1.526c-0.239-0.411-0.736-0.598-1.188-0.446l-0.879,0.295l-0.28,0.161
			c-0.731-0.665-1.602-1.18-2.572-1.482V41.7l-0.181-0.897C51.782,40.336,51.37,40,50.892,40h-1.784
			c-0.478,0-0.89,0.336-0.984,0.803L47.943,41.7v0.312c-0.969,0.302-1.841,0.817-2.572,1.482l-0.281-0.161l-0.879-0.295
			c-0.452-0.152-0.949,0.035-1.188,0.446l-0.888,1.526c-0.241,0.414-0.154,0.94,0.207,1.254l0.691,0.602l0.276,0.158
			c-0.106,0.475-0.166,0.968-0.166,1.475s0.06,1,0.166,1.475l-0.277,0.158l-0.691,0.602c-0.361,0.315-0.448,0.841-0.207,1.254
			l0.888,1.526c0.239,0.411,0.736,0.598,1.188,0.446l0.879-0.295l0.281-0.161c0.731,0.665,1.602,1.18,2.572,1.482V55.3l0.181,0.897
			C48.218,56.664,48.63,57,49.108,57h1.784c0.478,0,0.89-0.336,0.984-0.803l0.181-0.897v-0.313c0.969-0.302,1.841-0.817,2.572-1.482
			l0.281,0.161l0.879,0.295c0.452,0.152,0.949-0.035,1.188-0.446l0.888-1.526c0.241-0.414,0.154-0.94-0.207-1.254l-0.691-0.602
			L56.69,49.975z M50.027,52c-1.933,0-3.5-1.567-3.5-3.5s1.567-3.5,3.5-3.5s3.5,1.567,3.5,3.5S51.96,52,50.027,52z"></path><path fill="#263238" d="M50.893,57.5h-1.784c-0.713,0-1.333-0.506-1.475-1.204l-0.182-0.947c-0.777-0.285-1.496-0.7-2.146-1.237
			l-0.936,0.324c-0.674,0.227-1.422-0.054-1.78-0.668l-0.888-1.525c-0.36-0.62-0.229-1.412,0.312-1.883l0.737-0.63
			c-0.072-0.413-0.108-0.824-0.108-1.229s0.036-0.816,0.108-1.229l-0.737-0.63c-0.541-0.472-0.672-1.263-0.311-1.883l0.887-1.525
			c0.357-0.614,1.109-0.893,1.78-0.668l0.934,0.325c0.65-0.538,1.37-0.954,2.148-1.239l0.181-0.946
			c0.142-0.698,0.762-1.205,1.475-1.205h1.784c0.714,0,1.334,0.507,1.474,1.205l0.182,0.946c0.778,0.286,1.497,0.7,2.146,1.237
			l0.936-0.324c0.673-0.225,1.423,0.055,1.78,0.668l0.888,1.525c0.36,0.62,0.229,1.411-0.312,1.883l-0.737,0.63
			c0.072,0.413,0.108,0.824,0.108,1.229c0,0.404-0.036,0.815-0.108,1.228l0.738,0.631c0.54,0.472,0.671,1.263,0.31,1.883
			l-0.887,1.525c-0.358,0.614-1.108,0.892-1.78,0.668l-0.934-0.325c-0.649,0.538-1.369,0.953-2.148,1.239l-0.181,0.947
			C52.226,56.994,51.606,57.5,50.893,57.5z M45.371,53.006c0.121,0,0.242,0.044,0.336,0.13c0.701,0.638,1.504,1.1,2.385,1.375
			c0.209,0.065,0.352,0.259,0.352,0.478V55.3l0.171,0.798c0.047,0.232,0.255,0.402,0.494,0.402h1.784
			c0.239,0,0.446-0.169,0.493-0.401l0.181-0.897l-0.01-0.214c0-0.219,0.143-0.412,0.352-0.478c0.883-0.275,1.685-0.737,2.384-1.374
			c0.161-0.146,0.397-0.17,0.586-0.064l0.281,0.161l0.788,0.254c0.225,0.074,0.478-0.018,0.597-0.223l0.888-1.525
			c0.12-0.206,0.077-0.469-0.103-0.626l-0.691-0.603l-0.196-0.101c-0.19-0.108-0.288-0.329-0.24-0.543
			c0.104-0.459,0.155-0.918,0.155-1.366s-0.052-0.907-0.155-1.366c-0.048-0.214,0.05-0.435,0.24-0.543l0.276-0.158l0.611-0.545
			c0.18-0.157,0.223-0.42,0.104-0.626l-0.889-1.525c-0.118-0.206-0.371-0.3-0.597-0.223l-0.879,0.295l-0.19,0.12
			c-0.188,0.108-0.425,0.082-0.586-0.064c-0.699-0.637-1.501-1.099-2.384-1.374c-0.209-0.065-0.352-0.259-0.352-0.478V41.7
			l-0.171-0.798c-0.047-0.233-0.254-0.402-0.493-0.402h-1.784c-0.239,0-0.447,0.169-0.494,0.402l-0.181,0.896l0.01,0.213
			c0,0.219-0.143,0.412-0.352,0.478c-0.881,0.274-1.684,0.737-2.385,1.375c-0.159,0.145-0.396,0.171-0.585,0.063l-0.28-0.161
			l-0.789-0.254c-0.226-0.079-0.479,0.017-0.597,0.223l-0.888,1.525c-0.12,0.206-0.077,0.469,0.103,0.626l0.691,0.603l0.196,0.101
			c0.19,0.109,0.288,0.329,0.24,0.543c-0.104,0.459-0.155,0.918-0.155,1.366s0.052,0.907,0.155,1.366
			c0.048,0.214-0.05,0.435-0.24,0.543l-0.276,0.158l-0.611,0.545c-0.18,0.157-0.223,0.42-0.104,0.626l0.889,1.525
			c0.119,0.206,0.372,0.301,0.597,0.223l0.879-0.294l0.19-0.121C45.199,53.028,45.285,53.006,45.371,53.006z M50.027,52.5
			c-2.206,0-4-1.794-4-4s1.794-4,4-4s4,1.794,4,4S52.233,52.5,50.027,52.5z M50.027,45.5c-1.654,0-3,1.346-3,3s1.346,3,3,3
			s3-1.346,3-3S51.682,45.5,50.027,45.5z"></path></svg>