<?xml version="1.0" encoding="iso-8859-1"?>
<!-- Uploaded to: SVG Repo, www.svgrepo.com, Generator: SVG Repo Mixer Tools -->
<svg height="800px" width="800px" version="1.1" id="Layer_1" xmlns="http://www.w3.org/2000/svg" xmlns:xlink="http://www.w3.org/1999/xlink" 
	 viewBox="0 0 512 512" xml:space="preserve">
<polygon style="fill:#FBBA00;" points="341.334,60.776 170.666,85.542 170.666,85.542 0,60.776 0,426.458 170.666,451.223 
	170.666,451.223 341.334,426.458 512,451.223 512,85.542 "/>
<polygon style="fill:#FBDB80;" points="0,60.776 0,426.458 170.666,451.223 170.666,85.542 "/>
<polygon style="fill:#F28E00;" points="341.334,60.776 341.334,426.458 512,451.223 512,85.542 "/>
<g>
	<polygon style="fill:#FBBA00;" points="38.437,263.279 132.23,280.686 132.23,248.794 38.437,231.38 	"/>
	<polygon style="fill:#FBBA00;" points="38.437,155.279 132.23,172.669 132.23,140.796 38.437,123.364 	"/>
	<polygon style="fill:#FBBA00;" points="38.437,209.278 132.23,226.678 132.23,194.796 38.437,177.371 	"/>
	<polygon style="fill:#FBBA00;" points="38.437,317.278 132.23,334.629 132.23,302.795 38.437,285.388 	"/>
	<polygon style="fill:#FBBA00;" points="38.437,371.277 132.23,388.637 132.23,356.794 38.437,339.331 	"/>
</g>
<g>
	<polygon style="fill:#CC6600;" points="379.77,263.279 473.563,280.686 473.563,248.794 379.77,231.38 	"/>
	<polygon style="fill:#CC6600;" points="379.77,371.277 473.563,388.637 473.563,356.794 379.77,339.331 	"/>
	<polygon style="fill:#CC6600;" points="379.77,155.279 473.563,172.669 473.563,140.796 379.77,123.364 	"/>
	<polygon style="fill:#CC6600;" points="379.77,209.278 473.563,226.678 473.563,194.796 379.77,177.371 	"/>
	<polygon style="fill:#CC6600;" points="379.77,317.278 473.563,334.629 473.563,302.795 379.77,285.388 	"/>
</g>
<g>
	<polygon style="fill:#F28E00;" points="209.104,226.678 302.896,209.278 302.896,177.371 209.104,194.796 	"/>
	<path style="fill:#F28E00;" d="M209.104,388.637l93.793-17.359V231.38l-93.793,17.415L209.104,388.637L209.104,388.637z
		 M240.45,274.869l31.099-5.772v76.071l-31.099,5.791L240.45,274.869L240.45,274.869z"/>
	<polygon style="fill:#F28E00;" points="209.104,172.669 302.896,155.279 302.896,123.364 209.104,140.796 	"/>
</g>
</svg>